<svg version="1.1" xmlns="http://www.w3.org/2000/svg" viewBox="0 0 581.4470367431641 471.37591552734375" width="32.561034057617185em" height="26.39705126953125em">
  <!-- svg-source:excalidraw -->
  
  <defs>
    <style>
      @font-face {
        font-family: "Geraint-Dense";
        src: url("/style/blog/fonts/Geraint-Dense/Geraint-Dense.woff2");
      }
      @font-face {
        font-family: "Virgil";
        src: url("https://excalidraw.com/Virgil.woff2");
      }
      @font-face {
        font-family: "Cascadia";
        src: url("https://excalidraw.com/Cascadia.woff2");
      }
    </style>
  </defs>
  <g stroke-linecap="round" transform="translate(138.02255249023438 81.14546966552734) rotate(0 38.165069580078125 20)"><path d="M0 0 C21.4 0, 42.8 0, 76.33 0 M0 0 C26.31 0, 52.61 0, 76.33 0 M76.33 0 C76.33 14.38, 76.33 28.76, 76.33 40 M76.33 0 C76.33 15.21, 76.33 30.42, 76.33 40 M76.33 40 C53.69 40, 31.05 40, 0 40 M76.33 40 C48.24 40, 20.15 40, 0 40 M0 40 C0 27.63, 0 15.27, 0 0 M0 40 C0 25.02, 0 10.05, 0 0" stroke="#000000" stroke-width="2" fill="none"></path></g><g stroke-linecap="round" transform="translate(439.55442810058594 81.2964096069336) rotate(0 38.165069580078125 20)"><path d="M0 0 C23.9 0, 47.8 0, 76.33 0 M0 0 C22.62 0, 45.25 0, 76.33 0 M76.33 0 C76.33 11.64, 76.33 23.27, 76.33 40 M76.33 0 C76.33 12.46, 76.33 24.93, 76.33 40 M76.33 40 C50.36 40, 24.39 40, 0 40 M76.33 40 C47.2 40, 18.07 40, 0 40 M0 40 C0 30.67, 0 21.33, 0 0 M0 40 C0 30.26, 0 20.53, 0 0" stroke="#000000" stroke-width="2" fill="none"></path></g><g stroke-linecap="round" transform="translate(53.60357666015625 261.7076644897461) rotate(0 38.165069580078125 20)"><path d="M0 0 C23.39 0, 46.78 0, 76.33 0 M0 0 C17.1 0, 34.19 0, 76.33 0 M76.33 0 C76.33 11.57, 76.33 23.14, 76.33 40 M76.33 0 C76.33 8.41, 76.33 16.81, 76.33 40 M76.33 40 C52.83 40, 29.32 40, 0 40 M76.33 40 C57.88 40, 39.42 40, 0 40 M0 40 C0 30, 0 19.99, 0 0 M0 40 C0 28.4, 0 16.8, 0 0" stroke="#000000" stroke-width="2" fill="none"></path></g><g stroke-linecap="round" transform="translate(440.3859405517578 257.77684783935547) rotate(0 38.165069580078125 20)"><path d="M0 0 C23.96 0, 47.91 0, 76.33 0 M0 0 C19.11 0, 38.21 0, 76.33 0 M76.33 0 C76.33 10.58, 76.33 21.16, 76.33 40 M76.33 0 C76.33 9.4, 76.33 18.79, 76.33 40 M76.33 40 C55.56 40, 34.79 40, 0 40 M76.33 40 C52.3 40, 28.27 40, 0 40 M0 40 C0 30.59, 0 21.19, 0 0 M0 40 C0 24.95, 0 9.9, 0 0" stroke="#000000" stroke-width="2" fill="none"></path></g><g transform="translate(143.02255249023438 86.14546966552734) rotate(0 33 15)"><text x="33" y="22" font-family="Geraint-Dense, Segoe UI Emoji" font-size="20px" fill="#000000" text-anchor="middle" style="white-space: pre;" direction="ltr">object</text></g><g transform="translate(444.55442810058594 86.2964096069336) rotate(0 33 15)"><text x="33" y="22" font-family="Geraint-Dense, Segoe UI Emoji" font-size="20px" fill="#000000" text-anchor="middle" style="white-space: pre;" direction="ltr">object</text></g><g transform="translate(58.60357666015625 266.7076644897461) rotate(0 33 15)"><text x="33" y="22" font-family="Geraint-Dense, Segoe UI Emoji" font-size="20px" fill="#000000" text-anchor="middle" style="white-space: pre;" direction="ltr">object</text></g><g transform="translate(445.3859405517578 262.77684783935547) rotate(0 33 15)"><text x="33" y="22" font-family="Geraint-Dense, Segoe UI Emoji" font-size="20px" fill="#000000" text-anchor="middle" style="white-space: pre;" direction="ltr">object</text></g><g transform="translate(114.74752807617188 126.1694564819336) rotate(0 24 12)"><text x="0" y="20" font-family="Cascadia, Segoe UI Emoji" font-size="20px" fill="#000000" text-anchor="start" style="white-space: pre;" direction="ltr">.foo</text></g><g transform="translate(454.59226989746094 121.95726776123047) rotate(0 24 12)"><text x="0" y="20" font-family="Cascadia, Segoe UI Emoji" font-size="20px" fill="#000000" text-anchor="start" style="white-space: pre;" direction="ltr">.foo</text></g><g transform="translate(187.04141235351562 125.83409881591797) rotate(0 24 12)"><text x="0" y="20" font-family="Cascadia, Segoe UI Emoji" font-size="20px" fill="#000000" text-anchor="start" style="white-space: pre;" direction="ltr">.bar</text></g><g stroke-linecap="round"><g transform="translate(141.60272290532708 155.98174285888672) rotate(0 -16.71186433295722 46.08796691894531)"><path d="M0 0 C-5.57 15.36, -27.85 76.81, -33.42 92.18 M0 0 C-5.57 15.36, -27.85 76.81, -33.42 92.18" stroke="#868e96" stroke-width="2" fill="none"></path></g><g transform="translate(141.60272290532708 155.98174285888672) rotate(0 -16.71186433295722 46.08796691894531)"><path d="M-33.45 67.18 C-33.44 75.24, -33.43 83.3, -33.42 92.18 M-33.45 67.18 C-33.44 76.73, -33.43 86.28, -33.42 92.18" stroke="#868e96" stroke-width="2" fill="none"></path></g><g transform="translate(141.60272290532708 155.98174285888672) rotate(0 -16.71186433295722 46.08796691894531)"><path d="M-17.38 73.01 C-22.55 79.19, -27.73 85.37, -33.42 92.18 M-17.38 73.01 C-23.51 80.33, -29.64 87.65, -33.42 92.18" stroke="#868e96" stroke-width="2" fill="none"></path></g></g><g stroke-linecap="round"><g transform="translate(478.0918716164491 150.61602020263672) rotate(0 0.5755685278730311 47.91200256347656)"><path d="M0 0 C0.19 15.97, 0.96 79.85, 1.15 95.82 M0 0 C0.19 15.97, 0.96 79.85, 1.15 95.82" stroke="#868e96" stroke-width="2" fill="none"></path></g><g transform="translate(478.0918716164491 150.61602020263672) rotate(0 0.5755685278730311 47.91200256347656)"><path d="M-7.68 72.44 C-5.3 78.75, -2.91 85.06, 1.15 95.82 M-7.68 72.44 C-4.26 81.5, -0.84 90.55, 1.15 95.82" stroke="#868e96" stroke-width="2" fill="none"></path></g><g transform="translate(478.0918716164491 150.61602020263672) rotate(0 0.5755685278730311 47.91200256347656)"><path d="M9.42 72.23 C7.19 78.6, 4.96 84.97, 1.15 95.82 M9.42 72.23 C6.22 81.37, 3.01 90.51, 1.15 95.82" stroke="#868e96" stroke-width="2" fill="none"></path></g></g><g transform="translate(28.705169677734375 305.83504486083984) rotate(0 24 12)"><text x="48" y="20" font-family="Cascadia, Segoe UI Emoji" font-size="20px" fill="#000000" text-anchor="end" style="white-space: pre;" direction="ltr">.baz</text></g><g transform="translate(99.37692260742188 306.21227264404297) rotate(0 24 12)"><text x="48" y="20" font-family="Cascadia, Segoe UI Emoji" font-size="20px" fill="#000000" text-anchor="end" style="white-space: pre;" direction="ltr">.qux</text></g><g transform="translate(454.3380889892578 298.5162582397461) rotate(0 24 12)"><text x="0" y="20" font-family="Cascadia, Segoe UI Emoji" font-size="20px" fill="#000000" text-anchor="start" style="white-space: pre;" direction="ltr">.qux</text></g><g transform="translate(456.96434020996094 378.88011932373047) rotate(0 24 12)"><text x="0" y="20" font-family="Cascadia, Segoe UI Emoji" font-size="20px" fill="rgb(68,167,48)" text-anchor="start" style="white-space: pre;" direction="ltr">true</text></g><g stroke-linecap="round"><g transform="translate(480.4536932837095 329.2669143676758) rotate(0 0.22127007167523516 21.550331115722713)"><path d="M0 0 C0.07 7.18, 0.37 35.92, 0.44 43.1 M0 0 C0.07 7.18, 0.37 35.92, 0.44 43.1" stroke="#868e96" stroke-width="2" fill="none"></path></g><g transform="translate(480.4536932837095 329.2669143676758) rotate(0 0.22127007167523516 21.550331115722713)"><path d="M-6.08 25.75 C-4.38 30.27, -2.68 34.8, 0.44 43.1 M-6.08 25.75 C-3.68 32.12, -1.29 38.5, 0.44 43.1" stroke="#868e96" stroke-width="2" fill="none"></path></g><g transform="translate(480.4536932837095 329.2669143676758) rotate(0 0.22127007167523516 21.550331115722713)"><path d="M6.6 25.62 C5 30.18, 3.39 34.73, 0.44 43.1 M6.6 25.62 C4.34 32.04, 2.08 38.46, 0.44 43.1" stroke="#868e96" stroke-width="2" fill="none"></path></g></g><g transform="translate(153.69371032714844 10) rotate(0 21 15)"><text x="21" y="22" font-family="Geraint-Dense, Segoe UI Emoji" font-size="20px" fill="#000000" text-anchor="middle" style="white-space: pre;" direction="ltr">Data</text></g><g transform="translate(425.8922576904297 10.000015258789062) rotate(0 53 15)"><text x="53" y="22" font-family="Geraint-Dense, Segoe UI Emoji" font-size="20px" fill="#000000" text-anchor="middle" style="white-space: pre;" direction="ltr">Merge object</text></g><g stroke-linecap="round"><g transform="translate(214.07085947886418 152.83391571044922) rotate(0 7.142355157741434 16.959640502929688)"><path d="M0 0 C2.38 5.65, 11.9 28.27, 14.28 33.92 M0 0 C2.38 5.65, 11.9 28.27, 14.28 33.92" stroke="#868e96" stroke-width="2" fill="none"></path></g><g transform="translate(214.07085947886418 152.83391571044922) rotate(0 7.142355157741434 16.959640502929688)"><path d="M3.52 22.31 C7 26.06, 10.48 29.81, 14.28 33.92 M3.52 22.31 C7.67 26.78, 11.81 31.25, 14.28 33.92" stroke="#868e96" stroke-width="2" fill="none"></path></g><g transform="translate(214.07085947886418 152.83391571044922) rotate(0 7.142355157741434 16.959640502929688)"><path d="M13.5 18.11 C13.75 23.22, 14.01 28.32, 14.28 33.92 M13.5 18.11 C13.8 24.2, 14.1 30.29, 14.28 33.92" stroke="#868e96" stroke-width="2" fill="none"></path></g></g><g stroke-linecap="round"><g transform="translate(44.37583090191822 337.22972869873047) rotate(0 -8.933557016194584 28.973427114432354)"><path d="M0 0 C-2.98 9.66, -14.89 48.29, -17.87 57.95 M0 0 C-2.98 9.66, -14.89 48.29, -17.87 57.95" stroke="#868e96" stroke-width="2" fill="none"></path></g><g transform="translate(44.37583090191822 337.22972869873047) rotate(0 -8.933557016194584 28.973427114432354)"><path d="M-19.12 32.98 C-18.73 40.7, -18.34 48.43, -17.87 57.95 M-19.12 32.98 C-18.64 42.55, -18.16 52.12, -17.87 57.95" stroke="#868e96" stroke-width="2" fill="none"></path></g><g transform="translate(44.37583090191822 337.22972869873047) rotate(0 -8.933557016194584 28.973427114432354)"><path d="M-2.77 38.02 C-7.44 44.18, -12.11 50.35, -17.87 57.95 M-2.77 38.02 C-8.56 45.66, -14.35 53.3, -17.87 57.95" stroke="#868e96" stroke-width="2" fill="none"></path></g></g><g transform="translate(180.81802368164062 188.03926849365234) rotate(0 47.5 12)"><text x="0" y="20" font-family="Cascadia, Segoe UI Emoji" font-size="20px" fill="#868e96" text-anchor="start" style="white-space: pre;" direction="ltr">"string"</text></g><g transform="translate(10 403.14806365966797) rotate(0 6.5 12)"><text x="0" y="20" font-family="Cascadia, Segoe UI Emoji" font-size="20px" fill="#868e96" text-anchor="start" style="white-space: pre;" direction="ltr">5</text></g><g transform="translate(129.50100708007812 425.4025192260742) rotate(0 24 12)"><text x="0" y="20" font-family="Cascadia, Segoe UI Emoji" font-size="20px" fill="rgb(68,167,48)" text-anchor="start" style="white-space: pre;" direction="ltr">true</text></g><g stroke-linecap="round"><g transform="translate(131.41535542873396 336.4445114135742) rotate(0 9.840166572904934 28.72273254394534)"><path d="M0 0 C3.28 9.57, 16.4 47.87, 19.68 57.45 M0 0 C3.28 9.57, 16.4 47.87, 19.68 57.45" stroke="#868e96" stroke-width="2" fill="none"></path></g><g transform="translate(131.41535542873396 336.4445114135742) rotate(0 9.840166572904934 28.72273254394534)"><path d="M3.98 37.99 C10.18 45.68, 16.39 53.37, 19.68 57.45 M3.98 37.99 C9.3 44.59, 14.63 51.19, 19.68 57.45" stroke="#868e96" stroke-width="2" fill="none"></path></g><g transform="translate(131.41535542873396 336.4445114135742) rotate(0 9.840166572904934 28.72273254394534)"><path d="M20.16 32.45 C19.97 42.33, 19.78 52.2, 19.68 57.45 M20.16 32.45 C19.99 40.93, 19.83 49.4, 19.68 57.45" stroke="#868e96" stroke-width="2" fill="none"></path></g></g><g transform="translate(120.85598754882812 400.4025192260742) rotate(0 30 12)"><text x="30" y="20" font-family="Cascadia, Segoe UI Emoji" font-size="20px" fill="rgb(187,16,43)" text-anchor="middle" style="white-space: pre;" direction="ltr">false</text></g><g stroke-linecap="round"><g transform="translate(119.23587036132812 412.92980194091797) rotate(0 31.486846923828125 0)"><path d="M0 0 C10.5 0, 52.48 0, 62.97 0 M0 0 C10.5 0, 52.48 0, 62.97 0" stroke="rgb(187,16,43)" stroke-width="2" fill="none"></path></g></g><g transform="translate(415.29566955566406 417.70278930664057) rotate(0 69 12.000000000000028)"><text x="69" y="18" font-family="Geraint-Dense, Segoe UI Emoji" font-size="16px" fill="#000000" text-anchor="middle" style="white-space: pre;" direction="ltr">represents the change</text></g><g transform="translate(392.44703674316406 441.37591552734375) rotate(0 89.5 10)"><text x="89.5" y="16" font-family="Cascadia, Segoe UI Emoji" font-size="16px" fill="rgb(0,122,176)" text-anchor="middle" style="white-space: pre;" direction="ltr">data.foo.qux = true</text></g><g stroke-linecap="round"><g transform="translate(221.55935668945312 101.66548825204683) rotate(0 103.78032788336276 -1.9818834839880424)"><path d="M-1.09 -1.03 C33.87 -1.43, 173.59 -2.65, 208.65 -2.93" stroke="rgb(166,77,153)" stroke-width="1.5" fill="none" stroke-dasharray="8 9"></path></g><g transform="translate(221.55935668945312 101.66548825204683) rotate(0 103.78032788336276 -1.9818834839880424)"><path d="M181.17 7.07 C188.54 6.38, 194.17 4.75, 209.54 -4.85" stroke="rgb(166,77,153)" stroke-width="1.5" fill="none"></path></g><g transform="translate(221.55935668945312 101.66548825204683) rotate(0 103.78032788336276 -1.9818834839880424)"><path d="M181.01 -11.74 C188.32 -8.59, 193.99 -6.38, 209.54 -4.85" stroke="rgb(166,77,153)" stroke-width="1.5" fill="none"></path></g></g><g stroke-linecap="round"><g transform="translate(137.40980529785156 283.56993771493745) rotate(0 147.68816906064754 0.8931795041799546)"><path d="M0.53 0.61 C49.48 0.81, 245.82 1.36, 294.85 1.12" stroke="rgb(166,77,153)" stroke-width="1.5" fill="none" stroke-dasharray="8 9"></path></g><g transform="translate(137.40980529785156 283.56993771493745) rotate(0 147.68816906064754 0.8931795041799546)"><path d="M270.03 11.4 C281.09 7.34, 288.05 4.18, 293.77 -0.57" stroke="rgb(166,77,153)" stroke-width="1.5" fill="none"></path></g><g transform="translate(137.40980529785156 283.56993771493745) rotate(0 147.68816906064754 0.8931795041799546)"><path d="M270.02 -7.41 C281.08 -4.03, 288.04 0.25, 293.77 -0.57" stroke="rgb(166,77,153)" stroke-width="1.5" fill="none"></path></g></g><g transform="translate(272.5311737060547 73.56807708740234) rotate(0 41 24)"><text x="41" y="18" font-family="Geraint-Dense, Segoe UI Emoji" font-size="16px" fill="rgb(166,77,153)" text-anchor="middle" style="white-space: pre;" direction="ltr">Proxy with</text><text x="41" y="42" font-family="Geraint-Dense, Segoe UI Emoji" font-size="16px" fill="rgb(166,77,153)" text-anchor="middle" style="white-space: pre;" direction="ltr">hidden merge</text></g><g stroke-linecap="round" transform="translate(130.65708923339855 72.16627502441412) rotate(0 45.087013244628906 27.642440795898438)"><path d="M13.82 0 M13.82 0 C27.23 1.3, 40.66 1.63, 76.35 0 M76.35 0 C86.45 -1.92, 90.02 4.43, 90.17 13.82 M90.17 13.82 C90.37 24.04, 91.81 35.49, 90.17 41.46 M90.17 41.46 C89.5 51.27, 83.91 56.45, 76.35 55.28 M76.35 55.28 C61.53 54.6, 48.25 54.17, 13.82 55.28 M13.82 55.28 C6.14 55.47, -1.87 49.17, 0 41.46 M0 41.46 C1.37 32.06, -1.57 18.76, 0 13.82 M0 13.82 C-1.68 5.6, 3.17 0.48, 13.82 0" stroke="rgb(166,77,153)" stroke-width="1.5" fill="none" stroke-dasharray="8 9"></path></g><g stroke-linecap="round" transform="translate(46.50753784179699 254.07072448730474) rotate(0 45.087013244628935 27.642440795898438)"><path d="M13.82 0 M13.82 0 C33.13 1.54, 51.34 -1.72, 76.35 0 M76.35 0 C86.78 -1.08, 88.49 6.14, 90.17 13.82 M90.17 13.82 C90.62 22.43, 90.95 26.11, 90.17 41.46 M90.17 41.46 C88.59 51.96, 85.1 55.62, 76.35 55.28 M76.35 55.28 C64.26 55.76, 47.27 54.63, 13.82 55.28 M13.82 55.28 C2.95 54.33, -1.1 49.81, 0 41.46 M0 41.46 C-0.36 34.76, 0.77 25.85, 0 13.82 M0 13.82 C-1.52 6.06, 4.56 0.42, 13.82 0" stroke="rgb(166,77,153)" stroke-width="1.5" fill="none" stroke-dasharray="8 9"></path></g><g transform="translate(235.8076629638673 260.6737136840821) rotate(0 72 24)"><text x="72" y="18" font-family="Geraint-Dense, Segoe UI Emoji" font-size="16px" fill="rgb(166,77,153)" text-anchor="middle" style="white-space: pre;" direction="ltr">second Proxy</text><text x="72" y="42" font-family="Geraint-Dense, Segoe UI Emoji" font-size="16px" fill="rgb(166,77,153)" text-anchor="middle" style="white-space: pre;" direction="ltr">returned by        </text></g><g transform="translate(324.67779541015636 287.4108505249024) rotate(0 38 10)"><text x="38" y="16" font-family="Cascadia, Segoe UI Emoji" font-size="16px" fill="rgb(166,77,153)" text-anchor="middle" style="white-space: pre;" direction="ltr">data.foo</text></g></svg>